HIERARCHY
ROOT root
{
	OFFSET 0.000000 0.000000 0.000000
	CHANNELS 6 Xposition Yposition Zposition Zrotation Yrotation Xrotation
	JOINT lhip
	{
		OFFSET 0.058581 -0.082280 -0.017664
		CHANNELS 3 Zrotation Yrotation Xrotation
		JOINT lknee
		{
			OFFSET 0.043451 -0.386469 0.008037
			CHANNELS 3 Zrotation Yrotation Xrotation
			JOINT lankle
			{
				OFFSET -0.014790 -0.426874 -0.037428
				CHANNELS 3 Zrotation Yrotation Xrotation
				JOINT ltoe
				{
					OFFSET 0.041054 -0.060286 0.122042
					CHANNELS 3 Zrotation Yrotation Xrotation
					End Site
					{
						OFFSET 0.000000 0.000000 0.000000
					}
				}
			}
		}
	}
	JOINT rhip
	{
		OFFSET -0.060310 -0.090513 -0.013543
		CHANNELS 3 Zrotation Yrotation Xrotation
		JOINT rknee
		{
			OFFSET -0.043257 -0.383688 -0.004843
			CHANNELS 3 Zrotation Yrotation Xrotation
			JOINT rankle
			{
				OFFSET 0.019056 -0.420046 -0.034562
				CHANNELS 3 Zrotation Yrotation Xrotation
				JOINT rtoe
				{
					OFFSET -0.034840 -0.062106 0.130323
					CHANNELS 3 Zrotation Yrotation Xrotation
					End Site
					{
						OFFSET 0.000000 0.000000 0.000000
					}
				}
			}
		}
	}
	JOINT lowerback
	{
		OFFSET 0.004439 0.124404 -0.038385
		CHANNELS 3 Zrotation Yrotation Xrotation
		JOINT upperback
		{
			OFFSET 0.004488 0.137956 0.026820
			CHANNELS 3 Zrotation Yrotation Xrotation
			JOINT chest
			{
				OFFSET -0.002265 0.056032 0.002855
				CHANNELS 3 Zrotation Yrotation Xrotation
				JOINT lowerneck
				{
					OFFSET -0.013390 0.211636 -0.033468
					CHANNELS 3 Zrotation Yrotation Xrotation
					JOINT upperneck
					{
						OFFSET 0.010113 0.088937 0.050410
						CHANNELS 3 Zrotation Yrotation Xrotation
						End Site
						{
							OFFSET 0.000000 0.000000 0.000000
						}
					}
				}
				JOINT lclavicle
				{
					OFFSET 0.071702 0.114000 -0.018898
					CHANNELS 3 Zrotation Yrotation Xrotation
					JOINT lshoulder
					{
						OFFSET 0.122921 0.045205 -0.019046
						CHANNELS 3 Zrotation Yrotation Xrotation
						JOINT lelbow
						{
							OFFSET 0.255332 -0.015649 -0.022946
							CHANNELS 3 Zrotation Yrotation Xrotation
							JOINT lwrist
							{
								OFFSET 0.265709 0.012698 -0.007375
								CHANNELS 3 Zrotation Yrotation Xrotation
								End Site
								{
									OFFSET 0.000000 0.000000 0.000000
								}
							}
						}
					}
				}
				JOINT rclavicle
				{
					OFFSET -0.082954 0.112472 -0.023707
					CHANNELS 3 Zrotation Yrotation Xrotation
					JOINT rshoulder
					{
						OFFSET -0.113228 0.046853 -0.008472
						CHANNELS 3 Zrotation Yrotation Xrotation
						JOINT relbow
						{
							OFFSET -0.260127 -0.014369 -0.031269
							CHANNELS 3 Zrotation Yrotation Xrotation
							JOINT rwrist
							{
								OFFSET -0.269108 0.006794 -0.006027
								CHANNELS 3 Zrotation Yrotation Xrotation
								End Site
								{
									OFFSET 0.000000 0.000000 0.000000
								}
							}
						}
					}
				}
			}
		}
	}
}
MOTION
Frames: 17
Frame Time: 0.033333
0.184752 0.793161 0.989544 -98.072613 -2.898527 77.578049 13.089299 -5.618804 -48.924942 -3.652316 19.467154 74.599275 2.385255 7.825867 -24.228387 0.000000 -0.000000 0.000000 -0.273071 -3.267651 8.340335 1.720066 7.605644 12.700307 1.044005 -2.215891 -14.614194 0.000000 -0.000000 0.000000 -3.155153 11.748588 16.344283 2.629104 -4.452596 7.528151 0.119667 1.440864 6.490767 3.061156 3.741995 10.858764 5.958529 0.350398 16.459047 -22.026876 5.792368 3.864630 -66.831030 -1.584399 2.912925 12.412991 -29.085510 7.795489 -1.207208 -1.983494 -12.327656 21.034233 -1.906520 4.617072 63.802900 7.901035 8.468261 -21.025475 39.488018 -0.573715 9.345722 2.950341 -14.288713 
0.170891 0.792745 0.988381 -97.991144 -2.925429 77.460833 12.665592 -5.702552 -48.747658 -4.294834 18.644566 70.100695 2.819811 7.652413 -22.578552 0.000000 -0.000000 0.000000 -0.395243 -3.325170 9.206775 1.622436 7.750189 13.380324 0.652358 -2.443148 -15.916002 0.000000 -0.000000 0.000000 -3.116416 11.891094 16.554387 2.508215 -4.439271 8.006729 0.112653 1.529546 6.376932 3.053064 4.149194 10.969076 5.647308 0.420929 16.596201 -22.121972 5.549230 3.708416 -66.649516 -1.399621 2.945159 12.708408 -28.889191 7.471867 -0.889061 -1.950844 -12.262348 21.010860 -1.248655 4.791805 63.714975 7.919624 8.645151 -21.374518 40.264973 -0.858508 9.385050 3.073886 -14.369305 
0.156170 0.792495 0.986694 -97.852181 -2.810392 77.637461 12.095507 -5.823165 -48.118388 -5.612784 17.193049 66.578867 2.834798 6.821269 -21.166241 0.000000 -0.000000 0.000000 -0.466233 -3.595706 9.855012 1.432032 7.621738 13.755366 1.262888 -1.688186 -16.748195 0.000000 -0.000000 0.000000 -3.051108 12.005563 16.410306 2.389927 -4.404836 8.361195 0.028403 1.644061 6.339681 3.227997 4.598338 11.035272 5.743934 0.336765 16.532213 -22.090955 5.411236 3.467745 -66.320039 -1.192318 3.109349 12.847965 -29.177366 6.983958 -1.130657 -1.883167 -12.333857 21.174510 -1.117650 4.727724 63.515257 7.888317 8.714811 -20.735142 41.075326 -0.356545 9.626000 3.057923 -14.078047 
0.140164 0.792026 0.984707 -97.835955 -2.649832 77.995629 11.752790 -6.115241 -47.009557 -6.905359 16.073307 63.931968 2.832722 6.492522 -19.858426 0.000000 -0.000000 0.000000 -0.437933 -3.571420 10.667334 1.534558 7.820125 13.856333 0.182985 -2.751966 -18.298613 0.000000 -0.000000 0.000000 -3.203714 12.064050 15.974522 2.415216 -4.250498 8.482520 0.043875 1.762675 6.364803 3.455196 4.060163 11.150624 5.663439 -0.385541 17.107128 -22.120729 5.727741 3.489535 -66.123572 -1.309622 3.143619 12.901881 -29.703381 7.130746 -1.011712 -1.878145 -12.583031 21.159685 -1.020632 4.883056 63.477933 7.983173 8.844104 -20.260040 41.460309 0.501351 9.921668 3.275663 -14.417333 
0.123362 0.791196 0.982608 -97.826425 -2.396816 78.667905 11.388438 -6.254988 -45.760082 -7.459875 15.366989 62.117709 1.755779 5.927506 -18.081153 0.000000 -0.000000 0.000000 -0.364303 -3.684459 11.266411 1.401179 7.758791 13.712172 0.065300 -2.754945 -19.021139 0.000000 -0.000000 0.000000 -3.284231 12.192781 15.441651 2.395809 -4.069384 8.585185 0.019831 1.891520 6.116654 3.681580 4.083707 11.447352 5.761547 -0.616884 17.119885 -21.975906 6.049377 3.369771 -65.930367 -1.049622 3.313490 12.870773 -30.669884 7.166845 -0.790230 -1.946757 -13.124727 21.082587 -1.005044 4.835407 63.632307 7.643003 9.047032 -19.924841 41.682070 1.051300 9.650900 3.388614 -14.378066 
0.106585 0.789647 0.980684 -97.632839 -2.051000 79.978614 10.676347 -6.410071 -44.543778 -7.487915 14.681501 60.256081 2.658605 5.849449 -17.199354 0.000000 -0.000000 0.000000 -0.295765 -3.756098 11.139579 1.497810 7.655856 13.529619 0.093653 -2.961123 -19.425247 0.000000 -0.000000 0.000000 -3.454812 12.100795 14.202308 2.387990 -3.814746 8.682490 -0.021603 2.019352 6.358038 3.791641 4.065073 10.861503 5.676969 -0.881212 17.066229 -22.067437 6.657793 2.870347 -65.512095 -1.237598 3.571477 12.582583 -31.734262 6.877314 -0.453566 -2.041540 -12.592241 21.465728 -1.520750 4.627049 63.384316 7.717065 9.296293 -19.457019 41.904626 1.149651 9.404940 3.464934 -13.675366 
0.088943 0.787263 0.979876 -97.481408 -1.884418 81.277185 9.549666 -6.222604 -43.521741 -7.479511 14.216680 59.367381 5.834161 8.646088 -21.152241 0.000000 -0.000000 0.000000 -0.540421 -4.047695 11.135975 1.685432 8.356491 13.268923 0.536075 -3.655558 -19.350222 0.000000 -0.000000 0.000000 -3.571324 12.129980 13.772782 2.141758 -3.535790 7.540437 -0.039876 2.004636 6.757883 3.808950 3.433685 10.321706 5.695916 -0.523899 17.569810 -21.826289 7.155738 3.072706 -65.285424 -1.442581 3.506403 12.016440 -32.775296 7.909996 -0.589310 -1.743111 -13.768760 21.346233 -1.684809 4.604594 63.813830 7.337961 9.653148 -19.573606 41.543303 1.045381 10.339974 3.477650 -13.770465 
0.077031 0.785181 0.980125 -97.059285 -1.791128 82.553640 9.311502 -6.516757 -44.772982 -7.678609 13.977191 60.676453 6.251711 8.264353 -21.802844 0.000000 -0.000000 0.000000 -0.644486 -4.085670 10.721855 1.639682 8.160844 13.208688 0.819318 -3.308800 -19.056330 0.000000 -0.000000 0.000000 -3.793853 12.249509 13.601368 2.036198 -3.632748 6.556844 -0.093365 2.062197 6.762659 3.811764 3.312995 9.922743 6.120305 -0.943474 17.495254 -21.461180 7.107028 3.215586 -65.326249 -1.603153 3.590454 11.933409 -33.161885 7.996899 -0.453486 -1.777906 -13.621361 21.143480 -1.887464 4.795806 64.220250 6.990215 9.565975 -19.467471 41.458849 1.354499 10.178577 3.181638 -14.067713 
0.061206 0.782312 0.982541 -96.860550 -2.266091 84.118323 9.435062 -7.488271 -45.596422 -7.501298 15.238775 61.032141 4.860490 7.482377 -21.814253 0.000000 -0.000000 0.000000 -1.347496 -3.446650 10.392418 1.390152 7.294188 12.626317 1.881605 -3.059092 -17.351318 0.000000 -0.000000 0.000000 -4.764155 12.954175 13.174314 1.900210 -3.522528 6.442053 -0.135558 2.158519 6.269566 4.219326 2.976727 9.483776 6.408348 -1.704811 16.860895 -21.445226 6.620914 3.389512 -64.953414 -2.310006 4.062312 12.400655 -33.451091 7.120702 -0.378661 -2.221381 -13.266143 21.233248 -2.014171 4.927539 64.438794 6.540555 9.813164 -19.905439 41.105707 0.789433 9.370077 3.517709 -14.122316 
0.043179 0.779667 0.988692 -97.105879 -2.442196 84.692584 8.250068 -7.767083 -43.897249 -7.797208 14.637252 60.079803 7.049709 9.550914 -23.941869 0.000000 -0.000000 0.000000 -1.978391 -3.727416 11.026896 1.271935 7.567737 12.169738 2.665483 -2.967027 -14.334661 0.000000 -0.000000 0.000000 -5.156540 13.684998 13.424781 1.472466 -3.042651 6.269073 -0.267111 2.226609 6.543040 4.429177 2.430542 8.391338 6.905471 -1.899517 16.536835 -21.183210 6.034267 3.103145 -64.670609 -3.169676 4.531007 12.592092 -33.597485 6.597910 0.650554 -2.273464 -13.323594 21.039105 -1.856463 4.676962 64.966729 5.887193 10.240910 -20.322150 40.592312 0.208381 10.390874 3.156670 -14.264767 
0.025707 0.776478 0.998367 -97.090407 -2.154004 85.544581 7.577757 -8.419079 -42.402443 -7.607021 14.012667 58.654693 7.112420 9.892586 -24.720951 0.000000 -0.000000 0.000000 -1.969593 -3.539155 10.860823 0.922750 7.298351 12.325677 4.431134 -2.374793 -9.419012 0.000000 -0.000000 0.000000 -5.369603 13.730620 13.249190 1.105701 -2.708666 6.166558 -0.291108 2.360633 6.584674 4.508373 1.607897 8.476035 7.582498 -1.803036 15.989147 -21.174394 5.704501 2.926813 -64.664463 -3.937260 4.847457 13.428160 -33.777121 5.095106 1.192500 -2.679859 -13.073866 20.386486 -1.585483 4.630103 65.239094 5.295140 10.746545 -19.519507 40.026130 0.617762 9.484986 3.217201 -13.943593 
0.003807 0.772451 1.014419 -96.682853 -1.680641 86.423552 6.436040 -9.278978 -39.768914 -7.337045 12.701969 55.644739 7.170048 10.392743 -25.059916 0.000000 -0.000000 0.000000 -2.010404 -3.307451 10.078467 0.796650 6.742226 13.277859 6.920256 -2.050934 -1.683371 0.000000 -0.000000 0.000000 -5.959031 13.463864 12.973994 1.027803 -2.634062 6.225397 -0.077534 2.250313 6.576686 4.615121 0.941799 8.422129 8.081107 -1.352852 15.536716 -21.275614 5.701639 2.877989 -64.898374 -4.738585 5.425891 14.448980 -34.568841 3.075146 1.746096 -2.765584 -13.139027 20.162103 -2.045865 4.108571 64.687658 4.391976 11.518481 -18.609394 39.959892 1.048365 9.707172 3.012854 -13.264418 
-0.013445 0.769352 1.029660 -96.142132 -0.970785 86.943761 5.438316 -9.726290 -37.000865 -7.322789 10.868390 52.631059 7.800431 11.458316 -25.093606 0.000000 -0.000000 0.000000 -1.608986 -3.174041 8.365244 0.789180 6.513507 15.716900 9.132884 -1.918619 5.509383 0.000000 -0.000000 0.000000 -6.147973 12.818264 12.707293 1.132261 -2.594890 6.200007 0.162730 1.940200 6.717607 4.491245 0.195278 8.618346 8.451457 -0.762742 15.399599 -21.434112 5.743428 3.031012 -64.733422 -5.036148 5.726924 14.351165 -35.893472 2.319561 1.901088 -2.904542 -12.746651 19.914056 -2.404084 3.879154 64.515520 3.664291 11.793602 -18.797429 39.909387 -0.063724 9.996371 3.154508 -12.656446 
-0.028508 0.766530 1.045788 -95.794624 -0.460551 87.518499 4.527201 -9.905931 -34.132730 -6.980331 9.461378 49.211917 9.502486 12.861141 -24.714428 0.000000 -0.000000 0.000000 -1.035363 -2.423186 4.624611 0.505905 5.881196 21.385568 10.588924 -2.027148 9.629033 0.000000 -0.000000 0.000000 -6.610773 11.848820 12.725929 1.295421 -2.312056 5.664359 0.206687 1.678327 6.823758 4.990319 0.203830 8.644175 8.310653 -0.533818 15.367057 -20.990590 5.917546 3.213092 -64.844240 -5.434857 6.337620 14.214597 -36.923195 2.418545 1.080914 -2.994802 -12.995520 19.909826 -3.071871 3.839083 64.772405 3.039263 11.825415 -19.860321 39.693051 -1.920707 11.274994 3.379691 -13.189061 
-0.042658 0.763698 1.061398 -95.578884 -0.126833 87.764016 3.490151 -9.979854 -30.804680 -7.058930 7.765216 45.191704 9.714637 13.457541 -24.101357 0.000000 -0.000000 0.000000 -0.489552 -0.936603 -0.754370 0.117174 3.841557 31.283723 10.417502 -4.452409 10.122839 0.000000 -0.000000 0.000000 -7.144028 10.505008 12.856997 1.469982 -1.753098 5.548616 0.108672 1.290370 6.998966 5.772621 0.674424 8.313441 7.680142 -0.691074 15.107052 -20.513064 6.143828 2.886505 -64.482858 -5.711804 7.376917 13.525166 -37.952241 3.322616 0.855599 -3.156471 -13.169133 19.963199 -3.457851 3.318072 65.228161 2.296438 12.499153 -21.148180 38.814970 -4.517704 10.567903 3.198818 -13.985290 
-0.054961 0.761107 1.075833 -94.748219 0.347706 87.616341 2.319158 -9.758344 -27.276529 -7.169551 5.327179 41.238577 9.403772 13.716009 -23.103830 0.000000 -0.000000 0.000000 -0.318134 0.170562 -6.839881 -1.115118 0.293201 43.974115 8.810971 -7.735108 7.117444 0.000000 -0.000000 0.000000 -7.186176 8.474441 13.614732 1.522232 -1.569694 5.521939 0.062835 0.855369 7.094186 5.888164 1.203755 7.774030 7.267105 -0.175677 14.678674 -20.427291 5.652585 3.072828 -63.904236 -5.924690 7.571041 13.488488 -38.995862 3.406305 1.191034 -2.818846 -13.488388 19.806335 -3.397589 2.790387 65.488233 1.669217 12.440721 -21.588420 38.352686 -5.963850 9.658530 3.483886 -14.314458 
-0.067365 0.759123 1.090105 -93.865305 0.740888 86.656094 1.289992 -9.549834 -22.788582 -7.335145 3.088463 37.013805 8.364340 13.742411 -22.101398 0.000000 -0.000000 0.000000 -0.597152 1.441977 -11.986065 -2.182428 -2.224443 56.830479 7.830548 -9.010654 4.544751 0.000000 -0.000000 0.000000 -6.966724 6.569164 15.242788 1.571889 -1.573948 5.503642 -0.059216 0.388950 6.817820 5.958118 1.888663 8.344443 6.525624 0.122803 14.379591 -20.602636 4.787903 3.411123 -63.372298 -6.261464 7.381359 14.215142 -39.171707 2.248076 1.201688 -3.351870 -13.013742 19.817962 -3.102004 2.699958 65.427540 0.879713 12.100817 -21.745592 37.866672 -6.550635 9.102487 3.389717 -13.801660 
